# xmcd CD database file
#
# Track frame offsets:
#	150
#	18636
#	33761
#	45998
#	58826
#	90395
#	101909
#	113666
#
# Disc length: 2465 seconds
#
# Revision: 1
# Processed by: cddbd v1.5.2PL0 Copyright (c) Steve Scherf et al.
# Submitted via: CDex 1.51
#
DISCID=5b099f08
DTITLE=Poco - Poco
DYEAR=1970
DGENRE=Country Rock
TTITLE0=Hurry Up
TTITLE1=You Better Think Twice
TTITLE2=Honky Tonk Downstairs
TTITLE3=Keep On Belivein
TTITLE4=Anyway Bye Bye
TTITLE5=Don't Let It Pass By
TTITLE6=Nobody's Fool
TTITLE7=El Tonto de Nadie, Regresa
EXTD=YEAR: 1970
EXTT0=
EXTT1=
EXTT2=
EXTT3=
EXTT4=
EXTT5=
EXTT6=
EXTT7=
PLAYORDER=
